<mxfile host="65bd71144e" modified="2020-12-15T02:03:48.245Z" agent="5.0 (Windows NT 10.0; Win64; x64) AppleWebKit/537.36 (KHTML, like Gecko) Code/1.52.0 Chrome/83.0.4103.122 Electron/9.3.5 Safari/537.36" version="13.10.0" etag="9-r-1h3QEvzkr0J9Qwul" type="embed">
    <diagram id="aLfDbsbWZ3O_Y7zsOoCi" name="Page-1">
        <mxGraphModel dx="894" dy="610" grid="1" gridSize="10" guides="1" tooltips="1" connect="1" arrows="1" fold="1" page="1" pageScale="1" pageWidth="850" pageHeight="1100" math="0" shadow="0">
            <root>
                <mxCell id="0"/>
                <mxCell id="1" parent="0"/>
                <mxCell id="20" style="edgeStyle=orthogonalEdgeStyle;orthogonalLoop=1;jettySize=auto;html=1;exitX=0.5;exitY=1;exitDx=0;exitDy=0;entryX=0.5;entryY=0;entryDx=0;entryDy=0;" edge="1" parent="1" source="3" target="5">
                    <mxGeometry relative="1" as="geometry"/>
                </mxCell>
                <mxCell id="3" value="" style="shape=mxgraph.gcp2.doubleRect;shadow=1;strokeWidth=1;rounded=1;" vertex="1" parent="1">
                    <mxGeometry x="140" y="70" width="150" height="78" as="geometry"/>
                </mxCell>
                <mxCell id="4" value="&lt;font color=&quot;#666666&quot;&gt;&lt;span style=&quot;font-size: 17px&quot;&gt;&lt;b&gt;swagger&lt;/b&gt;&lt;/span&gt;&lt;br&gt;&lt;/font&gt;&lt;hr&gt;&lt;span style=&quot;font-size: 11px&quot;&gt;AutoConfigure&lt;/span&gt;" style="dashed=0;connectable=0;html=1;strokeColor=none;shape=mxgraph.gcp2.app_engine;part=1;labelPosition=right;verticalLabelPosition=middle;align=left;verticalAlign=top;spacingLeft=5;fontSize=12;spacingTop=-8;rounded=1;" vertex="1" parent="3">
                    <mxGeometry width="44" height="39" relative="1" as="geometry">
                        <mxPoint x="5" y="7" as="offset"/>
                    </mxGeometry>
                </mxCell>
                <mxCell id="21" style="edgeStyle=orthogonalEdgeStyle;orthogonalLoop=1;jettySize=auto;html=1;exitX=0.5;exitY=1;exitDx=0;exitDy=0;entryX=0.5;entryY=0;entryDx=0;entryDy=0;" edge="1" parent="1" source="5" target="7">
                    <mxGeometry relative="1" as="geometry"/>
                </mxCell>
                <mxCell id="27" style="edgeStyle=orthogonalEdgeStyle;orthogonalLoop=1;jettySize=auto;html=1;exitX=1;exitY=0.5;exitDx=0;exitDy=0;entryX=0.5;entryY=0;entryDx=0;entryDy=0;" edge="1" parent="1" source="5" target="15">
                    <mxGeometry relative="1" as="geometry"/>
                </mxCell>
                <mxCell id="5" value="" style="shape=mxgraph.gcp2.doubleRect;shadow=1;strokeWidth=1;rounded=1;" vertex="1" parent="1">
                    <mxGeometry x="140" y="210" width="150" height="78" as="geometry"/>
                </mxCell>
                <mxCell id="6" value="&lt;font color=&quot;#666666&quot;&gt;&lt;span style=&quot;font-size: 17px&quot;&gt;&lt;b&gt;swagger&lt;/b&gt;&lt;/span&gt;&lt;br&gt;&lt;/font&gt;&lt;hr&gt;&lt;span style=&quot;font-size: 11px&quot;&gt;Starter&lt;/span&gt;" style="dashed=0;connectable=0;html=1;strokeColor=none;shape=mxgraph.gcp2.app_engine;part=1;labelPosition=right;verticalLabelPosition=middle;align=left;verticalAlign=top;spacingLeft=5;fontSize=12;spacingTop=-8;rounded=1;" vertex="1" parent="5">
                    <mxGeometry width="44" height="39" relative="1" as="geometry">
                        <mxPoint x="5" y="7" as="offset"/>
                    </mxGeometry>
                </mxCell>
                <mxCell id="25" style="edgeStyle=orthogonalEdgeStyle;orthogonalLoop=1;jettySize=auto;html=1;exitX=0.5;exitY=1;exitDx=0;exitDy=0;entryX=0;entryY=0.5;entryDx=0;entryDy=0;" edge="1" parent="1" source="7" target="17">
                    <mxGeometry relative="1" as="geometry"/>
                </mxCell>
                <mxCell id="7" value="" style="shape=mxgraph.gcp2.doubleRect;shadow=1;strokeWidth=1;rounded=1;" vertex="1" parent="1">
                    <mxGeometry x="140" y="350" width="150" height="78" as="geometry"/>
                </mxCell>
                <mxCell id="8" value="&lt;font color=&quot;#666666&quot;&gt;&lt;span style=&quot;font-size: 17px&quot;&gt;&lt;b&gt;swagger&lt;/b&gt;&lt;/span&gt;&lt;br&gt;&lt;/font&gt;&lt;hr&gt;&lt;span style=&quot;font-size: 11px&quot;&gt;Starter-test&lt;/span&gt;" style="dashed=0;connectable=0;html=1;strokeColor=none;shape=mxgraph.gcp2.app_engine;part=1;labelPosition=right;verticalLabelPosition=middle;align=left;verticalAlign=top;spacingLeft=5;fontSize=12;spacingTop=-8;rounded=1;" vertex="1" parent="7">
                    <mxGeometry width="44" height="39" relative="1" as="geometry">
                        <mxPoint x="5" y="7" as="offset"/>
                    </mxGeometry>
                </mxCell>
                <mxCell id="22" style="edgeStyle=orthogonalEdgeStyle;orthogonalLoop=1;jettySize=auto;html=1;exitX=0.5;exitY=1;exitDx=0;exitDy=0;entryX=0.5;entryY=0;entryDx=0;entryDy=0;" edge="1" parent="1" source="9" target="11">
                    <mxGeometry relative="1" as="geometry"/>
                </mxCell>
                <mxCell id="9" value="" style="shape=mxgraph.gcp2.doubleRect;shadow=1;strokeWidth=1;rounded=1;" vertex="1" parent="1">
                    <mxGeometry x="550" y="70" width="150" height="78" as="geometry"/>
                </mxCell>
                <mxCell id="10" value="&lt;font color=&quot;#666666&quot;&gt;&lt;span style=&quot;font-size: 17px&quot;&gt;&lt;b&gt;response&lt;/b&gt;&lt;/span&gt;&lt;br&gt;&lt;/font&gt;&lt;hr&gt;&lt;span style=&quot;font-size: 11px&quot;&gt;Response&lt;/span&gt;" style="dashed=0;connectable=0;html=1;strokeColor=none;shape=mxgraph.gcp2.app_engine;part=1;labelPosition=right;verticalLabelPosition=middle;align=left;verticalAlign=top;spacingLeft=5;fontSize=12;spacingTop=-8;rounded=1;" vertex="1" parent="9">
                    <mxGeometry width="44" height="39" relative="1" as="geometry">
                        <mxPoint x="5" y="7" as="offset"/>
                    </mxGeometry>
                </mxCell>
                <mxCell id="23" style="edgeStyle=orthogonalEdgeStyle;orthogonalLoop=1;jettySize=auto;html=1;exitX=0.5;exitY=1;exitDx=0;exitDy=0;entryX=0.5;entryY=0;entryDx=0;entryDy=0;" edge="1" parent="1" source="11" target="13">
                    <mxGeometry relative="1" as="geometry"/>
                </mxCell>
                <mxCell id="28" style="edgeStyle=orthogonalEdgeStyle;orthogonalLoop=1;jettySize=auto;html=1;exitX=0;exitY=0.5;exitDx=0;exitDy=0;" edge="1" parent="1" source="11">
                    <mxGeometry relative="1" as="geometry">
                        <mxPoint x="400" y="520" as="targetPoint"/>
                    </mxGeometry>
                </mxCell>
                <mxCell id="11" value="" style="shape=mxgraph.gcp2.doubleRect;shadow=1;strokeWidth=1;rounded=1;" vertex="1" parent="1">
                    <mxGeometry x="550" y="210" width="150" height="78" as="geometry"/>
                </mxCell>
                <mxCell id="12" value="&lt;font color=&quot;#666666&quot;&gt;&lt;span style=&quot;font-size: 17px&quot;&gt;&lt;b&gt;response&lt;/b&gt;&lt;/span&gt;&lt;br&gt;&lt;/font&gt;&lt;hr&gt;&lt;span style=&quot;font-size: 11px&quot;&gt;Starter&lt;/span&gt;" style="dashed=0;connectable=0;html=1;strokeColor=none;shape=mxgraph.gcp2.app_engine;part=1;labelPosition=right;verticalLabelPosition=middle;align=left;verticalAlign=top;spacingLeft=5;fontSize=12;spacingTop=-8;rounded=1;" vertex="1" parent="11">
                    <mxGeometry width="44" height="39" relative="1" as="geometry">
                        <mxPoint x="5" y="7" as="offset"/>
                    </mxGeometry>
                </mxCell>
                <mxCell id="24" style="edgeStyle=orthogonalEdgeStyle;orthogonalLoop=1;jettySize=auto;html=1;exitX=0.5;exitY=1;exitDx=0;exitDy=0;entryX=1;entryY=0.5;entryDx=0;entryDy=0;" edge="1" parent="1" source="13" target="17">
                    <mxGeometry relative="1" as="geometry"/>
                </mxCell>
                <mxCell id="13" value="" style="shape=mxgraph.gcp2.doubleRect;shadow=1;strokeWidth=1;rounded=1;" vertex="1" parent="1">
                    <mxGeometry x="550" y="350" width="150" height="78" as="geometry"/>
                </mxCell>
                <mxCell id="14" value="&lt;font color=&quot;#666666&quot;&gt;&lt;span style=&quot;font-size: 17px&quot;&gt;&lt;b&gt;response&lt;/b&gt;&lt;/span&gt;&lt;br&gt;&lt;/font&gt;&lt;hr&gt;&lt;span style=&quot;font-size: 11px&quot;&gt;Starter-test&lt;/span&gt;" style="dashed=0;connectable=0;html=1;strokeColor=none;shape=mxgraph.gcp2.app_engine;part=1;labelPosition=right;verticalLabelPosition=middle;align=left;verticalAlign=top;spacingLeft=5;fontSize=12;spacingTop=-8;rounded=1;" vertex="1" parent="13">
                    <mxGeometry width="44" height="39" relative="1" as="geometry">
                        <mxPoint x="5" y="7" as="offset"/>
                    </mxGeometry>
                </mxCell>
                <mxCell id="26" style="edgeStyle=orthogonalEdgeStyle;orthogonalLoop=1;jettySize=auto;html=1;exitX=0.5;exitY=1;exitDx=0;exitDy=0;entryX=0.5;entryY=0;entryDx=0;entryDy=0;" edge="1" parent="1" source="15" target="17">
                    <mxGeometry relative="1" as="geometry"/>
                </mxCell>
                <mxCell id="15" value="" style="shape=mxgraph.gcp2.doubleRect;shadow=1;strokeWidth=1;rounded=1;" vertex="1" parent="1">
                    <mxGeometry x="310" y="520" width="180" height="78" as="geometry"/>
                </mxCell>
                <mxCell id="16" value="&lt;font color=&quot;#666666&quot;&gt;&lt;span style=&quot;font-size: 17px&quot;&gt;&lt;b&gt;common-api&lt;/b&gt;&lt;/span&gt;&lt;br&gt;&lt;/font&gt;&lt;hr&gt;&lt;span style=&quot;font-size: 11px&quot;&gt;Starter&lt;/span&gt;" style="dashed=0;connectable=0;html=1;strokeColor=none;shape=mxgraph.gcp2.app_engine;part=1;labelPosition=right;verticalLabelPosition=middle;align=left;verticalAlign=top;spacingLeft=5;fontSize=12;spacingTop=-8;rounded=1;" vertex="1" parent="15">
                    <mxGeometry width="44" height="39" relative="1" as="geometry">
                        <mxPoint x="5" y="7" as="offset"/>
                    </mxGeometry>
                </mxCell>
                <mxCell id="17" value="" style="shape=mxgraph.gcp2.doubleRect;shadow=1;strokeWidth=1;rounded=1;" vertex="1" parent="1">
                    <mxGeometry x="310" y="660" width="180" height="78" as="geometry"/>
                </mxCell>
                <mxCell id="18" value="&lt;font color=&quot;#666666&quot;&gt;&lt;span style=&quot;font-size: 17px&quot;&gt;&lt;b&gt;common-api&lt;/b&gt;&lt;/span&gt;&lt;br&gt;&lt;/font&gt;&lt;hr&gt;&lt;span style=&quot;font-size: 11px&quot;&gt;Starter-test&lt;/span&gt;" style="dashed=0;connectable=0;html=1;strokeColor=none;shape=mxgraph.gcp2.app_engine;part=1;labelPosition=right;verticalLabelPosition=middle;align=left;verticalAlign=top;spacingLeft=5;fontSize=12;spacingTop=-8;rounded=1;" vertex="1" parent="17">
                    <mxGeometry width="44" height="39" relative="1" as="geometry">
                        <mxPoint x="5" y="7" as="offset"/>
                    </mxGeometry>
                </mxCell>
            </root>
        </mxGraphModel>
    </diagram>
</mxfile>
